<svg width="130" height="36" viewBox="0 0 130 36" fill="none" xmlns="http://www.w3.org/2000/svg">
<path d="M1.94283 2.27264V8.09082H1.06499V2.27264H1.94283ZM7.91726 2.27264V8.09082H7.11044L4.15305 3.82377H4.09908V8.09082H3.22124V2.27264H4.03374L6.99396 6.54537H7.04794V2.27264H7.91726ZM11.0813 8.09082H9.1978V2.27264H11.141C11.7111 2.27264 12.2006 2.38912 12.6097 2.62207C13.0188 2.85313 13.3323 3.18552 13.5501 3.61923C13.7698 4.05105 13.8796 4.56904 13.8796 5.17321C13.8796 5.77927 13.7688 6.3001 13.5472 6.73571C13.3275 7.17131 13.0094 7.50654 12.5927 7.74139C12.176 7.97434 11.6722 8.09082 11.0813 8.09082ZM10.0756 7.32377H11.033C11.4762 7.32377 11.8446 7.24044 12.1381 7.07377C12.4317 6.90521 12.6514 6.66184 12.7972 6.34366C12.9431 6.02359 13.016 5.63343 13.016 5.17321C13.016 4.71677 12.9431 4.32946 12.7972 4.01127C12.6533 3.69309 12.4383 3.45162 12.1523 3.28684C11.8664 3.12207 11.5112 3.03968 11.087 3.03968H10.0756V7.32377ZM15.8491 2.27264V8.09082H14.9712V2.27264H15.8491ZM17.619 8.09082H16.6871L18.7809 2.27264H19.7951L21.8888 8.09082H20.957L19.3121 3.32946H19.2667L17.619 8.09082ZM17.7752 5.81241H20.7979V6.55105H17.7752V5.81241ZM24.8462 8.09082V2.27264H25.7241V4.80105H28.6246V2.27264H29.5053V8.09082H28.6246V5.55389H25.7241V8.09082H24.8462ZM31.2752 8.09082H30.3434L32.4371 2.27264H33.4513L35.5451 8.09082H34.6133L32.9684 3.32946H32.9229L31.2752 8.09082ZM31.4315 5.81241H34.4542V6.55105H31.4315V5.81241ZM41.0813 2.27264V8.09082H40.2745L37.3171 3.82377H37.2631V8.09082H36.3853V2.27264H37.1978L40.158 6.54537H40.212V2.27264H41.0813ZM44.2454 8.09082H42.3619V2.27264H44.305C44.8751 2.27264 45.3647 2.38912 45.7738 2.62207C46.1829 2.85313 46.4963 3.18552 46.7141 3.61923C46.9338 4.05105 47.0437 4.56904 47.0437 5.17321C47.0437 5.77927 46.9329 6.3001 46.7113 6.73571C46.4916 7.17131 46.1734 7.50654 45.7567 7.74139C45.3401 7.97434 44.8363 8.09082 44.2454 8.09082ZM43.2397 7.32377H44.1971C44.6403 7.32377 45.0086 7.24044 45.3022 7.07377C45.5958 6.90521 45.8155 6.66184 45.9613 6.34366C46.1071 6.02359 46.18 5.63343 46.18 5.17321C46.18 4.71677 46.1071 4.32946 45.9613 4.01127C45.8174 3.69309 45.6024 3.45162 45.3164 3.28684C45.0304 3.12207 44.6753 3.03968 44.2511 3.03968H43.2397V7.32377ZM48.1353 8.09082V2.27264H49.0131V7.33514H51.6495V8.09082H48.1353ZM57.4783 5.18173C57.4783 5.80294 57.3647 6.33703 57.1374 6.784C56.9102 7.22908 56.5986 7.57188 56.2028 7.81241C55.8088 8.05105 55.3609 8.17037 54.859 8.17037C54.3552 8.17037 53.9054 8.05105 53.5096 7.81241C53.1156 7.57188 52.805 7.22813 52.5778 6.78116C52.3505 6.33419 52.2369 5.80105 52.2369 5.18173C52.2369 4.56052 52.3505 4.02737 52.5778 3.5823C52.805 3.13533 53.1156 2.79252 53.5096 2.55389C53.9054 2.31336 54.3552 2.19309 54.859 2.19309C55.3609 2.19309 55.8088 2.31336 56.2028 2.55389C56.5986 2.79252 56.9102 3.13533 57.1374 3.5823C57.3647 4.02737 57.4783 4.56052 57.4783 5.18173ZM56.609 5.18173C56.609 4.70824 56.5323 4.30957 56.3789 3.98571C56.2274 3.65995 56.0191 3.41374 55.7539 3.24707C55.4906 3.07851 55.1924 2.99423 54.859 2.99423C54.5238 2.99423 54.2246 3.07851 53.9613 3.24707C53.698 3.41374 53.4897 3.65995 53.3363 3.98571C53.1848 4.30957 53.109 4.70824 53.109 5.18173C53.109 5.65521 53.1848 6.05484 53.3363 6.38059C53.4897 6.70446 53.698 6.95067 53.9613 7.11923C54.2246 7.2859 54.5238 7.36923 54.859 7.36923C55.1924 7.36923 55.4906 7.2859 55.7539 7.11923C56.0191 6.95067 56.2274 6.70446 56.3789 6.38059C56.5323 6.05484 56.609 5.65521 56.609 5.18173ZM63.6268 5.18173C63.6268 5.80294 63.5131 6.33703 63.2859 6.784C63.0586 7.22908 62.747 7.57188 62.3512 7.81241C61.9573 8.05105 61.5094 8.17037 61.0075 8.17037C60.5037 8.17037 60.0539 8.05105 59.658 7.81241C59.2641 7.57188 58.9535 7.22813 58.7262 6.78116C58.4989 6.33419 58.3853 5.80105 58.3853 5.18173C58.3853 4.56052 58.4989 4.02737 58.7262 3.5823C58.9535 3.13533 59.2641 2.79252 59.658 2.55389C60.0539 2.31336 60.5037 2.19309 61.0075 2.19309C61.5094 2.19309 61.9573 2.31336 62.3512 2.55389C62.747 2.79252 63.0586 3.13533 63.2859 3.5823C63.5131 4.02737 63.6268 4.56052 63.6268 5.18173ZM62.7575 5.18173C62.7575 4.70824 62.6808 4.30957 62.5273 3.98571C62.3758 3.65995 62.1675 3.41374 61.9023 3.24707C61.6391 3.07851 61.3408 2.99423 61.0075 2.99423C60.6722 2.99423 60.373 3.07851 60.1097 3.24707C59.8465 3.41374 59.6381 3.65995 59.4847 3.98571C59.3332 4.30957 59.2575 4.70824 59.2575 5.18173C59.2575 5.65521 59.3332 6.05484 59.4847 6.38059C59.6381 6.70446 59.8465 6.95067 60.1097 7.11923C60.373 7.2859 60.6722 7.36923 61.0075 7.36923C61.3408 7.36923 61.6391 7.2859 61.9023 7.11923C62.1675 6.95067 62.3758 6.70446 62.5273 6.38059C62.6808 6.05484 62.7575 5.65521 62.7575 5.18173ZM64.7212 2.27264H65.7866L67.6388 6.79537H67.707L69.5593 2.27264H70.6246V8.09082H69.7894V3.88059H69.7354L68.0195 8.0823H67.3263L65.6104 3.87775H65.5565V8.09082H64.7212V2.27264Z" fill="#444444"/>
<path d="M5.89737 16.8317H5.01101C4.97692 16.6423 4.91347 16.4756 4.82067 16.3317C4.72786 16.1877 4.61423 16.0656 4.47976 15.9652C4.34529 15.8648 4.19472 15.7891 4.02805 15.7379C3.86328 15.6868 3.68809 15.6612 3.50249 15.6612C3.16726 15.6612 2.86707 15.7455 2.60192 15.9141C2.33866 16.0826 2.13033 16.3298 1.97692 16.6555C1.8254 16.9813 1.74964 17.379 1.74964 17.8487C1.74964 18.3222 1.8254 18.7218 1.97692 19.0476C2.13033 19.3733 2.33961 19.6196 2.60476 19.7862C2.86991 19.9529 3.16821 20.0362 3.49964 20.0362C3.68336 20.0362 3.8576 20.0116 4.02237 19.9624C4.18904 19.9112 4.33961 19.8364 4.47408 19.7379C4.60855 19.6394 4.72218 19.5192 4.81499 19.3771C4.90968 19.2332 4.97502 19.0684 5.01101 18.8828L5.89737 18.8857C5.85002 19.1716 5.75817 19.4349 5.6218 19.6754C5.48733 19.9141 5.31404 20.1205 5.10192 20.2947C4.89169 20.4671 4.65116 20.6006 4.38033 20.6953C4.10949 20.79 3.81404 20.8374 3.49396 20.8374C2.99018 20.8374 2.54131 20.718 2.14737 20.4794C1.75343 20.2389 1.44283 19.8951 1.21555 19.4482C0.990175 19.0012 0.877486 18.468 0.877486 17.8487C0.877486 17.2275 0.991122 16.6944 1.21839 16.2493C1.44567 15.8023 1.75627 15.4595 2.15021 15.2209C2.54415 14.9804 2.99207 14.8601 3.49396 14.8601C3.80268 14.8601 4.09055 14.9046 4.3576 14.9936C4.62654 15.0807 4.86802 15.2095 5.08203 15.38C5.29605 15.5485 5.47313 15.755 5.61328 15.9993C5.75343 16.2417 5.84813 16.5192 5.89737 16.8317ZM12.0018 17.8487C12.0018 18.4699 11.8881 19.004 11.6609 19.451C11.4336 19.8961 11.122 20.2389 10.7262 20.4794C10.3323 20.718 9.88435 20.8374 9.38246 20.8374C8.87867 20.8374 8.42886 20.718 8.03303 20.4794C7.63909 20.2389 7.32848 19.8951 7.10121 19.4482C6.87393 19.0012 6.7603 18.468 6.7603 17.8487C6.7603 17.2275 6.87393 16.6944 7.10121 16.2493C7.32848 15.8023 7.63909 15.4595 8.03303 15.2209C8.42886 14.9804 8.87867 14.8601 9.38246 14.8601C9.88435 14.8601 10.3323 14.9804 10.7262 15.2209C11.122 15.4595 11.4336 15.8023 11.6609 16.2493C11.8881 16.6944 12.0018 17.2275 12.0018 17.8487ZM11.1325 17.8487C11.1325 17.3752 11.0558 16.9766 10.9023 16.6527C10.7508 16.3269 10.5425 16.0807 10.2773 15.9141C10.0141 15.7455 9.71579 15.6612 9.38246 15.6612C9.04723 15.6612 8.74799 15.7455 8.48473 15.9141C8.22147 16.0807 8.01314 16.3269 7.85973 16.6527C7.70821 16.9766 7.63246 17.3752 7.63246 17.8487C7.63246 18.3222 7.70821 18.7218 7.85973 19.0476C8.01314 19.3714 8.22147 19.6177 8.48473 19.7862C8.74799 19.9529 9.04723 20.0362 9.38246 20.0362C9.71579 20.0362 10.0141 19.9529 10.2773 19.7862C10.5425 19.6177 10.7508 19.3714 10.9023 19.0476C11.0558 18.7218 11.1325 18.3222 11.1325 17.8487ZM13.0962 14.9396H14.1616L16.0138 19.4624H16.082L17.9343 14.9396H18.9996V20.7578H18.1644V16.5476H18.1104L16.3945 20.7493H15.7013L13.9854 16.5447H13.9315V20.7578H13.0962V14.9396ZM20.2759 20.7578V14.9396H23.8839V15.6953H21.1538V17.468H23.6254V18.2209H21.1538V20.7578H20.2759ZM30.0174 17.8487C30.0174 18.4699 29.9038 19.004 29.6765 19.451C29.4492 19.8961 29.1377 20.2389 28.7418 20.4794C28.3479 20.718 27.9 20.8374 27.3981 20.8374C26.8943 20.8374 26.4445 20.718 26.0487 20.4794C25.6547 20.2389 25.3441 19.8951 25.1168 19.4482C24.8896 19.0012 24.7759 18.468 24.7759 17.8487C24.7759 17.2275 24.8896 16.6944 25.1168 16.2493C25.3441 15.8023 25.6547 15.4595 26.0487 15.2209C26.4445 14.9804 26.8943 14.8601 27.3981 14.8601C27.9 14.8601 28.3479 14.9804 28.7418 15.2209C29.1377 15.4595 29.4492 15.8023 29.6765 16.2493C29.9038 16.6944 30.0174 17.2275 30.0174 17.8487ZM29.1481 17.8487C29.1481 17.3752 29.0714 16.9766 28.918 16.6527C28.7665 16.3269 28.5581 16.0807 28.293 15.9141C28.0297 15.7455 27.7314 15.6612 27.3981 15.6612C27.0629 15.6612 26.7636 15.7455 26.5004 15.9141C26.2371 16.0807 26.0288 16.3269 25.8754 16.6527C25.7238 16.9766 25.6481 17.3752 25.6481 17.8487C25.6481 18.3222 25.7238 18.7218 25.8754 19.0476C26.0288 19.3714 26.2371 19.6177 26.5004 19.7862C26.7636 19.9529 27.0629 20.0362 27.3981 20.0362C27.7314 20.0362 28.0297 19.9529 28.293 19.7862C28.5581 19.6177 28.7665 19.3714 28.918 19.0476C29.0714 18.7218 29.1481 18.3222 29.1481 17.8487ZM31.1119 20.7578V14.9396H33.1857C33.6365 14.9396 34.0105 15.0173 34.3079 15.1726C34.6071 15.3279 34.8306 15.5429 34.9783 15.8175C35.1261 16.0902 35.1999 16.4055 35.1999 16.7635C35.1999 17.1196 35.1251 17.433 34.9755 17.7038C34.8278 17.9728 34.6043 18.1821 34.305 18.3317C34.0077 18.4813 33.6336 18.5561 33.1829 18.5561H31.6119V17.8004H33.1033C33.3874 17.8004 33.6185 17.7597 33.7965 17.6783C33.9764 17.5968 34.1081 17.4785 34.1914 17.3232C34.2747 17.1679 34.3164 16.9813 34.3164 16.7635C34.3164 16.5438 34.2738 16.3535 34.1886 16.1925C34.1052 16.0315 33.9736 15.9084 33.7937 15.8232C33.6156 15.736 33.3817 15.6925 33.092 15.6925H31.9897V20.7578H31.1119ZM33.984 18.1328L35.4215 20.7578H34.4215L33.0124 18.1328H33.984ZM35.9812 15.6953V14.9396H40.484V15.6953H38.6687V20.7578H37.7937V15.6953H35.9812ZM44.707 13.0646V22.6328H43.9457V13.0646H44.707ZM51.6289 16.468C51.5986 16.1991 51.4736 15.9908 51.2539 15.843C51.0342 15.6934 50.7577 15.6186 50.4244 15.6186C50.1857 15.6186 49.9793 15.6565 49.805 15.7322C49.6308 15.8061 49.4954 15.9084 49.3988 16.0391C49.3041 16.1679 49.2567 16.3146 49.2567 16.4794C49.2567 16.6177 49.2889 16.737 49.3533 16.8374C49.4196 16.9377 49.5058 17.022 49.6119 17.0902C49.7198 17.1565 49.8353 17.2124 49.9585 17.2578C50.0816 17.3014 50.1999 17.3374 50.3136 17.3658L50.8817 17.5135C51.0674 17.5589 51.2577 17.6205 51.4528 17.6982C51.6478 17.7758 51.8287 17.8781 51.9954 18.005C52.1621 18.1319 52.2965 18.2891 52.3988 18.4766C52.503 18.6641 52.555 18.8885 52.555 19.1499C52.555 19.4794 52.4698 19.772 52.2994 20.0277C52.1308 20.2834 51.8855 20.4851 51.5636 20.6328C51.2435 20.7805 50.8562 20.8544 50.4016 20.8544C49.966 20.8544 49.5891 20.7853 49.271 20.647C48.9528 20.5088 48.7037 20.3127 48.5238 20.0589C48.3439 19.8033 48.2444 19.5002 48.2255 19.1499H49.1062C49.1232 19.3601 49.1914 19.5353 49.3107 19.6754C49.4319 19.8137 49.5863 19.9169 49.7738 19.9851C49.9632 20.0514 50.1706 20.0845 50.396 20.0845C50.6441 20.0845 50.8647 20.0457 51.0579 19.968C51.253 19.8885 51.4064 19.7786 51.5181 19.6385C51.6299 19.4964 51.6857 19.3307 51.6857 19.1413C51.6857 18.969 51.6365 18.8279 51.538 18.718C51.4414 18.6082 51.3098 18.5173 51.1431 18.4453C50.9783 18.3733 50.7918 18.3099 50.5835 18.255L49.896 18.0675C49.43 17.9406 49.0607 17.754 48.788 17.5078C48.5172 17.2616 48.3817 16.9358 48.3817 16.5305C48.3817 16.1953 48.4727 15.9027 48.6545 15.6527C48.8363 15.4027 49.0825 15.2086 49.3931 15.0703C49.7037 14.9302 50.0541 14.8601 50.4442 14.8601C50.8382 14.8601 51.1857 14.9292 51.4869 15.0675C51.7899 15.2057 52.0285 15.3961 52.2028 15.6385C52.377 15.879 52.4679 16.1555 52.4755 16.468H51.6289ZM53.3171 15.6953V14.9396H57.82V15.6953H56.0046V20.7578H55.1296V15.6953H53.3171ZM58.3661 14.9396H59.3633L60.8832 17.5845H60.9457L62.4656 14.9396H63.4627L61.3519 18.4737V20.7578H60.4769V18.4737L58.3661 14.9396ZM64.2915 20.7578V14.9396H65.1694V20.0021H67.8058V20.7578H64.2915ZM68.8072 20.7578V14.9396H72.4549V15.6953H69.685V17.468H72.2646V18.2209H69.685V20.0021H72.489V20.7578H68.8072ZM76.8555 13.0646V22.6328H76.0941V13.0646H76.8555ZM80.604 20.7578V14.9396H84.212V15.6953H81.4819V17.468H83.9535V18.2209H81.4819V20.7578H80.604ZM85.0565 20.7578H84.1246L86.2184 14.9396H87.2326L89.3263 20.7578H88.3945L86.7496 15.9964H86.7042L85.0565 20.7578ZM85.2127 18.4794H88.2354V19.218H85.2127V18.4794ZM93.293 16.468C93.2627 16.1991 93.1377 15.9908 92.918 15.843C92.6983 15.6934 92.4218 15.6186 92.0884 15.6186C91.8498 15.6186 91.6433 15.6565 91.4691 15.7322C91.2949 15.8061 91.1594 15.9084 91.0629 16.0391C90.9682 16.1679 90.9208 16.3146 90.9208 16.4794C90.9208 16.6177 90.953 16.737 91.0174 16.8374C91.0837 16.9377 91.1699 17.022 91.2759 17.0902C91.3839 17.1565 91.4994 17.2124 91.6225 17.2578C91.7456 17.3014 91.864 17.3374 91.9776 17.3658L92.5458 17.5135C92.7314 17.5589 92.9218 17.6205 93.1168 17.6982C93.3119 17.7758 93.4928 17.8781 93.6594 18.005C93.8261 18.1319 93.9606 18.2891 94.0629 18.4766C94.167 18.6641 94.2191 18.8885 94.2191 19.1499C94.2191 19.4794 94.1339 19.772 93.9634 20.0277C93.7949 20.2834 93.5496 20.4851 93.2276 20.6328C92.9076 20.7805 92.5202 20.8544 92.0657 20.8544C91.6301 20.8544 91.2532 20.7853 90.935 20.647C90.6168 20.5088 90.3678 20.3127 90.1879 20.0589C90.0079 19.8033 89.9085 19.5002 89.8896 19.1499H90.7702C90.7873 19.3601 90.8555 19.5353 90.9748 19.6754C91.096 19.8137 91.2504 19.9169 91.4379 19.9851C91.6272 20.0514 91.8346 20.0845 92.06 20.0845C92.3081 20.0845 92.5288 20.0457 92.7219 19.968C92.917 19.8885 93.0704 19.7786 93.1822 19.6385C93.2939 19.4964 93.3498 19.3307 93.3498 19.1413C93.3498 18.969 93.3005 18.8279 93.2021 18.718C93.1055 18.6082 92.9738 18.5173 92.8072 18.4453C92.6424 18.3733 92.4558 18.3099 92.2475 18.255L91.56 18.0675C91.0941 17.9406 90.7248 17.754 90.4521 17.5078C90.1812 17.2616 90.0458 16.9358 90.0458 16.5305C90.0458 16.1953 90.1367 15.9027 90.3185 15.6527C90.5004 15.4027 90.7466 15.2086 91.0572 15.0703C91.3678 14.9302 91.7182 14.8601 92.1083 14.8601C92.5022 14.8601 92.8498 14.9292 93.1509 15.0675C93.454 15.2057 93.6926 15.3961 93.8668 15.6385C94.0411 15.879 94.132 16.1555 94.1396 16.468H93.293ZM95.2681 20.7578V14.9396H96.146V17.468H99.0465V14.9396H99.9272V20.7578H99.0465V18.2209H96.146V20.7578H95.2681ZM102.083 14.9396V20.7578H101.206V14.9396H102.083ZM108.416 17.8487C108.416 18.4699 108.302 19.004 108.075 19.451C107.848 19.8961 107.536 20.2389 107.14 20.4794C106.746 20.718 106.298 20.8374 105.797 20.8374C105.293 20.8374 104.843 20.718 104.447 20.4794C104.053 20.2389 103.743 19.8951 103.515 19.4482C103.288 19.0012 103.174 18.468 103.174 17.8487C103.174 17.2275 103.288 16.6944 103.515 16.2493C103.743 15.8023 104.053 15.4595 104.447 15.2209C104.843 14.9804 105.293 14.8601 105.797 14.8601C106.298 14.8601 106.746 14.9804 107.14 15.2209C107.536 15.4595 107.848 15.8023 108.075 16.2493C108.302 16.6944 108.416 17.2275 108.416 17.8487ZM107.547 17.8487C107.547 17.3752 107.47 16.9766 107.316 16.6527C107.165 16.3269 106.957 16.0807 106.691 15.9141C106.428 15.7455 106.13 15.6612 105.797 15.6612C105.461 15.6612 105.162 15.7455 104.899 15.9141C104.636 16.0807 104.427 16.3269 104.274 16.6527C104.122 16.9766 104.047 17.3752 104.047 17.8487C104.047 18.3222 104.122 18.7218 104.274 19.0476C104.427 19.3714 104.636 19.6177 104.899 19.7862C105.162 19.9529 105.461 20.0362 105.797 20.0362C106.13 20.0362 106.428 19.9529 106.691 19.7862C106.957 19.6177 107.165 19.3714 107.316 19.0476C107.47 18.7218 107.547 18.3222 107.547 17.8487ZM114.206 14.9396V20.7578H113.4L110.442 16.4908H110.388V20.7578H109.51V14.9396H110.323L113.283 19.2124H113.337V14.9396H114.206Z" fill="#444444"/>
<path d="M1.84801 32.4844L0.644176 28.3935H1.46715L2.26882 31.3977H2.30877L3.1131 28.3935H3.93608L4.73509 31.3844H4.77504L5.57138 28.3935H6.39435L5.19318 32.4844H4.38086L3.54989 29.5307H3.48864L2.65767 32.4844H1.84801ZM8.03698 32.4844L6.83314 28.3935H7.65612L8.45779 31.3977H8.49774L9.30207 28.3935H10.125L10.9241 31.3844H10.964L11.7603 28.3935H12.5833L11.3821 32.4844H10.5698L9.73886 29.5307H9.6776L8.84664 32.4844H8.03698ZM14.2259 32.4844L13.0221 28.3935H13.8451L14.6468 31.3977H14.6867L15.491 28.3935H16.314L17.113 31.3844H17.153L17.9493 28.3935H18.7723L17.5711 32.4844H16.7588L15.9278 29.5307H15.8666L15.0356 32.4844H14.2259ZM20.4149 32.4844L19.2111 28.3935H20.034L20.8357 31.3977H20.8757L21.68 28.3935H22.503L23.302 31.3844H23.3419L24.1383 28.3935H24.9612L23.7601 32.4844H22.9478L22.1168 29.5307H22.0555L21.2246 32.4844H20.4149ZM25.685 32.535C25.5394 32.535 25.4142 32.4835 25.3095 32.3805C25.2047 32.2757 25.1523 32.1497 25.1523 32.0023C25.1523 31.8567 25.2047 31.7324 25.3095 31.6294C25.4142 31.5247 25.5394 31.4723 25.685 31.4723C25.8306 31.4723 25.9558 31.5247 26.0605 31.6294C26.1653 31.7324 26.2177 31.8567 26.2177 32.0023C26.2177 32.1 26.1928 32.1896 26.1431 32.2713C26.0952 32.3512 26.0312 32.4151 25.9513 32.4631C25.8714 32.511 25.7827 32.535 25.685 32.535ZM27.2844 32.4844V28.3935H28.0807V32.4844H27.2844ZM27.6865 27.7623C27.548 27.7623 27.4291 27.7161 27.3296 27.6238C27.232 27.5297 27.1831 27.4178 27.1831 27.2882C27.1831 27.1568 27.232 27.0449 27.3296 26.9526C27.4291 26.8585 27.548 26.8114 27.6865 26.8114C27.825 26.8114 27.9431 26.8585 28.0407 26.9526C28.1402 27.0449 28.1899 27.1568 28.1899 27.2882C28.1899 27.4178 28.1402 27.5297 28.0407 27.6238C27.9431 27.7161 27.825 27.7623 27.6865 27.7623ZM29.9484 30.0554V32.4844H29.152V28.3935H29.9164V29.0593H29.967C30.0611 28.8427 30.2085 28.6687 30.4091 28.5373C30.6116 28.4059 30.8663 28.3402 31.1735 28.3402C31.4523 28.3402 31.6964 28.3988 31.9059 28.516C32.1155 28.6314 32.2779 28.8036 32.3933 29.0327C32.5087 29.2617 32.5665 29.5449 32.5665 29.8823V32.4844H31.7701V29.9782C31.7701 29.6816 31.6929 29.4499 31.5384 29.283C31.3839 29.1143 31.1717 29.03 30.9019 29.03C30.7172 29.03 30.553 29.07 30.4091 29.1499C30.2671 29.2298 30.1543 29.3469 30.0709 29.5014C29.9892 29.6541 29.9484 29.8388 29.9484 30.0554ZM35.1659 32.5643C34.8356 32.5643 34.5409 32.4799 34.2816 32.3113C34.0242 32.1408 33.8218 31.8984 33.6744 31.5842C33.5288 31.2681 33.456 30.889 33.456 30.4469C33.456 30.0048 33.5297 29.6266 33.6771 29.3123C33.8262 28.998 34.0304 28.7575 34.2896 28.5906C34.5489 28.4237 34.8427 28.3402 35.1712 28.3402C35.4251 28.3402 35.6293 28.3828 35.7838 28.468C35.94 28.5515 36.0608 28.6491 36.146 28.761C36.233 28.8729 36.3005 28.9714 36.3484 29.0566H36.3964V27.0298H37.1927V32.4844H36.415V31.8478H36.3484C36.3005 31.9348 36.2312 32.0343 36.1407 32.1461C36.0519 32.258 35.9294 32.3556 35.7731 32.4391C35.6169 32.5225 35.4145 32.5643 35.1659 32.5643ZM35.3417 31.8851C35.5707 31.8851 35.7642 31.8248 35.9223 31.704C36.0821 31.5815 36.2028 31.4119 36.2845 31.1953C36.3679 30.9787 36.4097 30.7266 36.4097 30.4389C36.4097 30.1548 36.3688 29.9062 36.2872 29.6932C36.2055 29.4801 36.0856 29.3141 35.9276 29.1951C35.7696 29.0762 35.5743 29.0167 35.3417 29.0167C35.102 29.0167 34.9022 29.0788 34.7424 29.2031C34.5826 29.3274 34.4619 29.497 34.3802 29.7118C34.3003 29.9267 34.2603 30.169 34.2603 30.4389C34.2603 30.7124 34.3012 30.9583 34.3829 31.1767C34.4645 31.3951 34.5853 31.5682 34.7451 31.696C34.9066 31.8221 35.1055 31.8851 35.3417 31.8851ZM38.3293 32.4844V28.3935H39.1256V32.4844H38.3293ZM38.7314 27.7623C38.593 27.7623 38.474 27.7161 38.3746 27.6238C38.2769 27.5297 38.2281 27.4178 38.2281 27.2882C38.2281 27.1568 38.2769 27.0449 38.3746 26.9526C38.474 26.8585 38.593 26.8114 38.7314 26.8114C38.8699 26.8114 38.988 26.8585 39.0857 26.9526C39.1851 27.0449 39.2348 27.1568 39.2348 27.2882C39.2348 27.4178 39.1851 27.5297 39.0857 27.6238C38.988 27.7161 38.8699 27.7623 38.7314 27.7623ZM41.3875 32.5749C41.1282 32.5749 40.8939 32.527 40.6843 32.4311C40.4748 32.3335 40.3088 32.1923 40.1863 32.0076C40.0656 31.823 40.0052 31.5966 40.0052 31.3285C40.0052 31.0977 40.0496 30.9077 40.1384 30.7585C40.2271 30.6094 40.347 30.4913 40.4979 30.4043C40.6488 30.3173 40.8175 30.2516 41.004 30.2072C41.1904 30.1628 41.3804 30.1291 41.5739 30.106C41.8189 30.0776 42.0178 30.0545 42.1705 30.0368C42.3232 30.0172 42.4342 29.9862 42.5034 29.9435C42.5727 29.9009 42.6073 29.8317 42.6073 29.7358V29.7172C42.6073 29.4846 42.5416 29.3043 42.4102 29.1765C42.2806 29.0487 42.087 28.9847 41.8296 28.9847C41.5615 28.9847 41.3502 29.0442 41.1957 29.1632C41.043 29.2804 40.9374 29.4109 40.8788 29.5547L40.1304 29.3842C40.2191 29.1357 40.3488 28.935 40.5192 28.7823C40.6915 28.6278 40.8894 28.516 41.1131 28.4467C41.3369 28.3757 41.5721 28.3402 41.8189 28.3402C41.9823 28.3402 42.1554 28.3597 42.3383 28.3988C42.5229 28.4361 42.6952 28.5053 42.855 28.6065C43.0166 28.7077 43.1488 28.8525 43.2518 29.0407C43.3548 29.2271 43.4063 29.4695 43.4063 29.7678V32.4844H42.6286V31.9251H42.5966C42.5451 32.0281 42.4679 32.1293 42.3649 32.2287C42.2619 32.3281 42.1297 32.4107 41.9681 32.4764C41.8065 32.5421 41.613 32.5749 41.3875 32.5749ZM41.5606 31.9357C41.7808 31.9357 41.969 31.8922 42.1252 31.8052C42.2832 31.7182 42.4031 31.6046 42.4848 31.4643C42.5682 31.3223 42.61 31.1705 42.61 31.0089V30.4815C42.5815 30.5099 42.5265 30.5366 42.4448 30.5614C42.3649 30.5845 42.2735 30.6049 42.1705 30.6227C42.0675 30.6387 41.9672 30.6538 41.8695 30.668C41.7719 30.6804 41.6902 30.6911 41.6245 30.6999C41.47 30.7195 41.3289 30.7523 41.201 30.7985C41.075 30.8446 40.9738 30.9112 40.8974 30.9982C40.8228 31.0835 40.7856 31.1971 40.7856 31.3391C40.7856 31.5362 40.8584 31.6854 41.004 31.7866C41.1495 31.886 41.3351 31.9357 41.5606 31.9357ZM45.2633 30.0554V32.4844H44.467V27.0298H45.2527V29.0593H45.3033C45.3991 28.8391 45.5456 28.6642 45.7427 28.5346C45.9398 28.405 46.1973 28.3402 46.5151 28.3402C46.7956 28.3402 47.0407 28.3979 47.2502 28.5133C47.4615 28.6287 47.6248 28.801 47.7402 29.03C47.8574 29.2573 47.916 29.5414 47.916 29.8823V32.4844H47.1197V29.9782C47.1197 29.6781 47.0424 29.4455 46.888 29.2804C46.7335 29.1135 46.5186 29.03 46.2434 29.03C46.0552 29.03 45.8865 29.07 45.7374 29.1499C45.59 29.2298 45.4737 29.3469 45.3885 29.5014C45.305 29.6541 45.2633 29.8388 45.2633 30.0554ZM50.1692 32.5749C49.91 32.5749 49.6756 32.527 49.4661 32.4311C49.2566 32.3335 49.0906 32.1923 48.968 32.0076C48.8473 31.823 48.7869 31.5966 48.7869 31.3285C48.7869 31.0977 48.8313 30.9077 48.9201 30.7585C49.0089 30.6094 49.1287 30.4913 49.2797 30.4043C49.4306 30.3173 49.5993 30.2516 49.7857 30.2072C49.9721 30.1628 50.1621 30.1291 50.3556 30.106C50.6007 30.0776 50.7995 30.0545 50.9522 30.0368C51.1049 30.0172 51.2159 29.9862 51.2852 29.9435C51.3544 29.9009 51.389 29.8317 51.389 29.7358V29.7172C51.389 29.4846 51.3233 29.3043 51.1919 29.1765C51.0623 29.0487 50.8688 28.9847 50.6113 28.9847C50.3432 28.9847 50.1319 29.0442 49.9775 29.1632C49.8248 29.2804 49.7191 29.4109 49.6605 29.5547L48.9121 29.3842C49.0009 29.1357 49.1305 28.935 49.301 28.7823C49.4732 28.6278 49.6712 28.516 49.8949 28.4467C50.1186 28.3757 50.3539 28.3402 50.6007 28.3402C50.764 28.3402 50.9371 28.3597 51.12 28.3988C51.3047 28.4361 51.4769 28.5053 51.6367 28.6065C51.7983 28.7077 51.9306 28.8525 52.0336 29.0407C52.1365 29.2271 52.188 29.4695 52.188 29.7678V32.4844H51.4103V31.9251H51.3784C51.3269 32.0281 51.2496 32.1293 51.1467 32.2287C51.0437 32.3281 50.9114 32.4107 50.7498 32.4764C50.5882 32.5421 50.3947 32.5749 50.1692 32.5749ZM50.3423 31.9357C50.5625 31.9357 50.7507 31.8922 50.907 31.8052C51.065 31.7182 51.1848 31.6046 51.2665 31.4643C51.35 31.3223 51.3917 31.1705 51.3917 31.0089V30.4815C51.3633 30.5099 51.3082 30.5366 51.2266 30.5614C51.1467 30.5845 51.0552 30.6049 50.9522 30.6227C50.8493 30.6387 50.7489 30.6538 50.6513 30.668C50.5536 30.6804 50.4719 30.6911 50.4062 30.6999C50.2518 30.7195 50.1106 30.7523 49.9828 30.7985C49.8567 30.8446 49.7555 30.9112 49.6792 30.9982C49.6046 31.0835 49.5673 31.1971 49.5673 31.3391C49.5673 31.5362 49.6401 31.6854 49.7857 31.7866C49.9313 31.886 50.1168 31.9357 50.3423 31.9357ZM54.0451 30.0554V32.4844H53.2487V28.3935H54.0131V29.0593H54.0637C54.1578 28.8427 54.3052 28.6687 54.5058 28.5373C54.7082 28.4059 54.963 28.3402 55.2702 28.3402C55.549 28.3402 55.7931 28.3988 56.0026 28.516C56.2121 28.6314 56.3746 28.8036 56.49 29.0327C56.6054 29.2617 56.6631 29.5449 56.6631 29.8823V32.4844H55.8668V29.9782C55.8668 29.6816 55.7896 29.4499 55.6351 29.283C55.4806 29.1143 55.2684 29.03 54.9985 29.03C54.8139 29.03 54.6496 29.07 54.5058 29.1499C54.3638 29.2298 54.251 29.3469 54.1676 29.5014C54.0859 29.6541 54.0451 29.8388 54.0451 30.0554ZM59.2626 32.5643C58.9323 32.5643 58.6376 32.4799 58.3783 32.3113C58.1209 32.1408 57.9185 31.8984 57.7711 31.5842C57.6255 31.2681 57.5527 30.889 57.5527 30.4469C57.5527 30.0048 57.6264 29.6266 57.7737 29.3123C57.9229 28.998 58.1271 28.7575 58.3863 28.5906C58.6456 28.4237 58.9394 28.3402 59.2679 28.3402C59.5218 28.3402 59.726 28.3828 59.8805 28.468C60.0367 28.5515 60.1574 28.6491 60.2427 28.761C60.3297 28.8729 60.3972 28.9714 60.4451 29.0566H60.493V27.0298H61.2894V32.4844H60.5117V31.8478H60.4451C60.3972 31.9348 60.3279 32.0343 60.2373 32.1461C60.1486 32.258 60.0261 32.3556 59.8698 32.4391C59.7136 32.5225 59.5111 32.5643 59.2626 32.5643ZM59.4383 31.8851C59.6674 31.8851 59.8609 31.8248 60.019 31.704C60.1788 31.5815 60.2995 31.4119 60.3812 31.1953C60.4646 30.9787 60.5063 30.7266 60.5063 30.4389C60.5063 30.1548 60.4655 29.9062 60.3838 29.6932C60.3022 29.4801 60.1823 29.3141 60.0243 29.1951C59.8663 29.0762 59.6709 29.0167 59.4383 29.0167C59.1986 29.0167 58.9989 29.0788 58.8391 29.2031C58.6793 29.3274 58.5585 29.497 58.4769 29.7118C58.397 29.9267 58.357 30.169 58.357 30.4389C58.357 30.7124 58.3979 30.9583 58.4795 31.1767C58.5612 31.3951 58.682 31.5682 58.8418 31.696C59.0033 31.8221 59.2022 31.8851 59.4383 31.8851ZM63.2223 27.0298V32.4844H62.426V27.0298H63.2223ZM66.0168 32.5669C65.6333 32.5669 65.2986 32.479 65.0127 32.3033C64.7269 32.1275 64.5049 31.8816 64.3469 31.5655C64.1889 31.2495 64.1099 30.8801 64.1099 30.4576C64.1099 30.0332 64.1889 29.6621 64.3469 29.3443C64.5049 29.0265 64.7269 28.7797 65.0127 28.6039C65.2986 28.4281 65.6333 28.3402 66.0168 28.3402C66.4003 28.3402 66.735 28.4281 67.0209 28.6039C67.3068 28.7797 67.5287 29.0265 67.6867 29.3443C67.8448 29.6621 67.9238 30.0332 67.9238 30.4576C67.9238 30.8801 67.8448 31.2495 67.6867 31.5655C67.5287 31.8816 67.3068 32.1275 67.0209 32.3033C66.735 32.479 66.4003 32.5669 66.0168 32.5669ZM66.0195 31.8984C66.2681 31.8984 66.474 31.8327 66.6374 31.7013C66.8007 31.57 66.9215 31.3951 66.9996 31.1767C67.0795 30.9583 67.1195 30.7177 67.1195 30.4549C67.1195 30.1939 67.0795 29.9542 66.9996 29.7358C66.9215 29.5156 66.8007 29.339 66.6374 29.2058C66.474 29.0726 66.2681 29.006 66.0195 29.006C65.7691 29.006 65.5614 29.0726 65.3963 29.2058C65.2329 29.339 65.1113 29.5156 65.0314 29.7358C64.9533 29.9542 64.9142 30.1939 64.9142 30.4549C64.9142 30.7177 64.9533 30.9583 65.0314 31.1767C65.1113 31.3951 65.2329 31.57 65.3963 31.7013C65.5614 31.8327 65.7691 31.8984 66.0195 31.8984ZM70.5359 32.5669C70.1523 32.5669 69.8176 32.479 69.5318 32.3033C69.2459 32.1275 69.024 31.8816 68.8659 31.5655C68.7079 31.2495 68.6289 30.8801 68.6289 30.4576C68.6289 30.0332 68.7079 29.6621 68.8659 29.3443C69.024 29.0265 69.2459 28.7797 69.5318 28.6039C69.8176 28.4281 70.1523 28.3402 70.5359 28.3402C70.9194 28.3402 71.2541 28.4281 71.54 28.6039C71.8258 28.7797 72.0478 29.0265 72.2058 29.3443C72.3638 29.6621 72.4428 30.0332 72.4428 30.4576C72.4428 30.8801 72.3638 31.2495 72.2058 31.5655C72.0478 31.8816 71.8258 32.1275 71.54 32.3033C71.2541 32.479 70.9194 32.5669 70.5359 32.5669ZM70.5385 31.8984C70.7871 31.8984 70.9931 31.8327 71.1564 31.7013C71.3198 31.57 71.4405 31.3951 71.5186 31.1767C71.5985 30.9583 71.6385 30.7177 71.6385 30.4549C71.6385 30.1939 71.5985 29.9542 71.5186 29.7358C71.4405 29.5156 71.3198 29.339 71.1564 29.2058C70.9931 29.0726 70.7871 29.006 70.5385 29.006C70.2882 29.006 70.0804 29.0726 69.9153 29.2058C69.752 29.339 69.6303 29.5156 69.5504 29.7358C69.4723 29.9542 69.4332 30.1939 69.4332 30.4549C69.4332 30.7177 69.4723 30.9583 69.5504 31.1767C69.6303 31.3951 69.752 31.57 69.9153 31.7013C70.0804 31.8327 70.2882 31.8984 70.5385 31.8984ZM73.3317 32.4844V28.3935H74.0961V29.0593H74.1467C74.2319 28.8338 74.3713 28.658 74.5649 28.532C74.7584 28.4041 74.9901 28.3402 75.26 28.3402C75.5334 28.3402 75.7625 28.4041 75.9471 28.532C76.1336 28.6598 76.2712 28.8356 76.36 29.0593H76.4026C76.5002 28.8409 76.6556 28.6669 76.8687 28.5373C77.0817 28.4059 77.3356 28.3402 77.6304 28.3402C78.0015 28.3402 78.3042 28.4565 78.5386 28.6891C78.7747 28.9217 78.8928 29.2724 78.8928 29.7411V32.4844H78.0965V29.8157C78.0965 29.5387 78.021 29.3381 77.8701 29.2138C77.7191 29.0895 77.5389 29.0273 77.3294 29.0273C77.0702 29.0273 76.8687 29.1072 76.7248 29.267C76.581 29.4251 76.5091 29.6284 76.5091 29.877V32.4844H75.7154V29.7651C75.7154 29.5431 75.6462 29.3647 75.5077 29.2298C75.3692 29.0948 75.189 29.0273 74.967 29.0273C74.8161 29.0273 74.6767 29.0673 74.5489 29.1472C74.4228 29.2253 74.3207 29.3345 74.2426 29.4748C74.1662 29.6151 74.1281 29.7775 74.1281 29.9622V32.4844H73.3317ZM80.0241 32.4844V27.0298H80.8204V29.0566H80.8683C80.9145 28.9714 80.9811 28.8729 81.0681 28.761C81.1551 28.6491 81.2758 28.5515 81.4303 28.468C81.5848 28.3828 81.789 28.3402 82.0429 28.3402C82.3731 28.3402 82.6679 28.4237 82.9271 28.5906C83.1863 28.7575 83.3896 28.998 83.537 29.3123C83.6862 29.6266 83.7607 30.0048 83.7607 30.4469C83.7607 30.889 83.6871 31.2681 83.5397 31.5842C83.3923 31.8984 83.1899 32.1408 82.9324 32.3113C82.675 32.4799 82.3811 32.5643 82.0509 32.5643C81.8023 32.5643 81.599 32.5225 81.441 32.4391C81.2847 32.3556 81.1622 32.258 81.0734 32.1461C80.9846 32.0343 80.9163 31.9348 80.8683 31.8478H80.8018V32.4844H80.0241ZM80.8044 30.4389C80.8044 30.7266 80.8461 30.9787 80.9296 31.1953C81.0131 31.4119 81.1338 31.5815 81.2918 31.704C81.4498 31.8248 81.6434 31.8851 81.8724 31.8851C82.1104 31.8851 82.3092 31.8221 82.469 31.696C82.6288 31.5682 82.7496 31.3951 82.8312 31.1767C82.9147 30.9583 82.9564 30.7124 82.9564 30.4389C82.9564 30.169 82.9156 29.9267 82.8339 29.7118C82.754 29.497 82.6333 29.3274 82.4717 29.2031C82.3119 29.0788 82.1121 29.0167 81.8724 29.0167C81.6416 29.0167 81.4463 29.0762 81.2865 29.1951C81.1285 29.3141 81.0086 29.4801 80.9269 29.6932C80.8453 29.9062 80.8044 30.1548 80.8044 30.4389ZM84.655 32.4844V28.3935H85.4247V29.0433H85.4673C85.5419 28.8232 85.6733 28.65 85.8615 28.524C86.0514 28.3961 86.2663 28.3322 86.506 28.3322C86.5557 28.3322 86.6143 28.334 86.6818 28.3375C86.751 28.3411 86.8052 28.3455 86.8442 28.3509V29.1126C86.8123 29.1037 86.7555 29.0939 86.6738 29.0833C86.5921 29.0708 86.5104 29.0646 86.4288 29.0646C86.2405 29.0646 86.0728 29.1046 85.9254 29.1845C85.7798 29.2626 85.6644 29.3718 85.5791 29.5121C85.4939 29.6506 85.4513 29.8086 85.4513 29.9862V32.4844H84.655ZM88.6873 32.5749C88.428 32.5749 88.1937 32.527 87.9842 32.4311C87.7746 32.3335 87.6086 32.1923 87.4861 32.0076C87.3654 31.823 87.305 31.5966 87.305 31.3285C87.305 31.0977 87.3494 30.9077 87.4382 30.7585C87.5269 30.6094 87.6468 30.4913 87.7977 30.4043C87.9486 30.3173 88.1173 30.2516 88.3038 30.2072C88.4902 30.1628 88.6802 30.1291 88.8737 30.106C89.1187 30.0776 89.3176 30.0545 89.4703 30.0368C89.623 30.0172 89.734 29.9862 89.8032 29.9435C89.8725 29.9009 89.9071 29.8317 89.9071 29.7358V29.7172C89.9071 29.4846 89.8414 29.3043 89.71 29.1765C89.5804 29.0487 89.3869 28.9847 89.1294 28.9847C88.8613 28.9847 88.65 29.0442 88.4955 29.1632C88.3428 29.2804 88.2372 29.4109 88.1786 29.5547L87.4302 29.3842C87.519 29.1357 87.6486 28.935 87.819 28.7823C87.9913 28.6278 88.1892 28.516 88.413 28.4467C88.6367 28.3757 88.8719 28.3402 89.1187 28.3402C89.2821 28.3402 89.4552 28.3597 89.6381 28.3988C89.8228 28.4361 89.995 28.5053 90.1548 28.6065C90.3164 28.7077 90.4486 28.8525 90.5516 29.0407C90.6546 29.2271 90.7061 29.4695 90.7061 29.7678V32.4844H89.9284V31.9251H89.8964C89.8449 32.0281 89.7677 32.1293 89.6647 32.2287C89.5617 32.3281 89.4295 32.4107 89.2679 32.4764C89.1063 32.5421 88.9128 32.5749 88.6873 32.5749ZM88.8604 31.9357C89.0806 31.9357 89.2688 31.8922 89.425 31.8052C89.5831 31.7182 89.7029 31.6046 89.7846 31.4643C89.868 31.3223 89.9098 31.1705 89.9098 31.0089V30.4815C89.8813 30.5099 89.8263 30.5366 89.7446 30.5614C89.6647 30.5845 89.5733 30.6049 89.4703 30.6227C89.3673 30.6387 89.267 30.6538 89.1693 30.668C89.0717 30.6804 88.99 30.6911 88.9243 30.6999C88.7698 30.7195 88.6287 30.7523 88.5008 30.7985C88.3748 30.8446 88.2736 30.9112 88.1972 30.9982C88.1226 31.0835 88.0854 31.1971 88.0854 31.3391C88.0854 31.5362 88.1582 31.6854 88.3038 31.7866C88.4494 31.886 88.6349 31.9357 88.8604 31.9357ZM92.5631 30.0554V32.4844H91.7668V28.3935H92.5312V29.0593H92.5818C92.6759 28.8427 92.8232 28.6687 93.0239 28.5373C93.2263 28.4059 93.4811 28.3402 93.7883 28.3402C94.067 28.3402 94.3112 28.3988 94.5207 28.516C94.7302 28.6314 94.8927 28.8036 95.0081 29.0327C95.1235 29.2617 95.1812 29.5449 95.1812 29.8823V32.4844H94.3849V29.9782C94.3849 29.6816 94.3076 29.4499 94.1531 29.283C93.9987 29.1143 93.7865 29.03 93.5166 29.03C93.3319 29.03 93.1677 29.07 93.0239 29.1499C92.8818 29.2298 92.7691 29.3469 92.6856 29.5014C92.604 29.6541 92.5631 29.8388 92.5631 30.0554ZM97.7806 32.5643C97.4504 32.5643 97.1556 32.4799 96.8964 32.3113C96.6389 32.1408 96.4365 31.8984 96.2892 31.5842C96.1436 31.2681 96.0708 30.889 96.0708 30.4469C96.0708 30.0048 96.1444 29.6266 96.2918 29.3123C96.441 28.998 96.6452 28.7575 96.9044 28.5906C97.1636 28.4237 97.4575 28.3402 97.786 28.3402C98.0399 28.3402 98.2441 28.3828 98.3985 28.468C98.5548 28.5515 98.6755 28.6491 98.7607 28.761C98.8477 28.8729 98.9152 28.9714 98.9632 29.0566H99.0111V27.0298H99.8074V32.4844H99.0297V31.8478H98.9632C98.9152 31.9348 98.846 32.0343 98.7554 32.1461C98.6666 32.258 98.5441 32.3556 98.3879 32.4391C98.2316 32.5225 98.0292 32.5643 97.7806 32.5643ZM97.9564 31.8851C98.1855 31.8851 98.379 31.8248 98.537 31.704C98.6968 31.5815 98.8176 31.4119 98.8992 31.1953C98.9827 30.9787 99.0244 30.7266 99.0244 30.4389C99.0244 30.1548 98.9836 29.9062 98.9019 29.6932C98.8202 29.4801 98.7004 29.3141 98.5423 29.1951C98.3843 29.0762 98.189 29.0167 97.9564 29.0167C97.7167 29.0167 97.517 29.0788 97.3572 29.2031C97.1974 29.3274 97.0766 29.497 96.9949 29.7118C96.915 29.9267 96.8751 30.169 96.8751 30.4389C96.8751 30.7124 96.9159 30.9583 96.9976 31.1767C97.0793 31.3951 97.2 31.5682 97.3598 31.696C97.5214 31.8221 97.7203 31.8851 97.9564 31.8851ZM101.469 32.535C101.323 32.535 101.198 32.4835 101.093 32.3805C100.988 32.2757 100.936 32.1497 100.936 32.0023C100.936 31.8567 100.988 31.7324 101.093 31.6294C101.198 31.5247 101.323 31.4723 101.469 31.4723C101.614 31.4723 101.739 31.5247 101.844 31.6294C101.949 31.7324 102.001 31.8567 102.001 32.0023C102.001 32.1 101.977 32.1896 101.927 32.2713C101.879 32.3512 101.815 32.4151 101.735 32.4631C101.655 32.511 101.566 32.535 101.469 32.535ZM104.783 34.1037C104.458 34.1037 104.179 34.0611 103.944 33.9759C103.712 33.8906 103.522 33.7779 103.374 33.6376C103.227 33.4973 103.117 33.3438 103.044 33.1768L103.729 32.8945C103.777 32.9727 103.84 33.0552 103.92 33.1422C104.002 33.231 104.112 33.3065 104.251 33.3686C104.391 33.4308 104.571 33.4618 104.791 33.4618C105.093 33.4618 105.343 33.3881 105.54 33.2408C105.737 33.0952 105.835 32.8626 105.835 32.543V31.7386H105.785C105.737 31.8256 105.667 31.9224 105.577 32.0289C105.488 32.1355 105.366 32.2278 105.209 32.3059C105.053 32.3841 104.85 32.4231 104.599 32.4231C104.276 32.4231 103.985 32.3477 103.726 32.1967C103.468 32.044 103.264 31.8194 103.113 31.5229C102.964 31.2246 102.89 30.858 102.89 30.4229C102.89 29.9879 102.963 29.6151 103.111 29.3043C103.26 28.9936 103.464 28.7557 103.723 28.5906C103.982 28.4237 104.276 28.3402 104.605 28.3402C104.859 28.3402 105.064 28.3828 105.22 28.468C105.376 28.5515 105.498 28.6491 105.585 28.761C105.674 28.8729 105.742 28.9714 105.79 29.0566H105.849V28.3935H106.629V32.5749C106.629 32.9265 106.547 33.215 106.384 33.4405C106.221 33.666 106 33.8329 105.721 33.9412C105.444 34.0495 105.131 34.1037 104.783 34.1037ZM104.775 31.7626C105.004 31.7626 105.198 31.7093 105.356 31.6028C105.516 31.4945 105.636 31.34 105.718 31.1394C105.802 30.937 105.843 30.6946 105.843 30.4123C105.843 30.1371 105.802 29.8947 105.721 29.6852C105.639 29.4757 105.519 29.3123 105.361 29.1951C105.203 29.0762 105.008 29.0167 104.775 29.0167C104.536 29.0167 104.336 29.0788 104.176 29.2031C104.016 29.3256 103.895 29.4925 103.814 29.7038C103.734 29.9151 103.694 30.1513 103.694 30.4123C103.694 30.6804 103.735 30.9157 103.816 31.1181C103.898 31.3205 104.019 31.4785 104.179 31.5922C104.34 31.7058 104.539 31.7626 104.775 31.7626ZM109.42 32.5669C109.037 32.5669 108.702 32.479 108.416 32.3033C108.13 32.1275 107.908 31.8816 107.75 31.5655C107.592 31.2495 107.513 30.8801 107.513 30.4576C107.513 30.0332 107.592 29.6621 107.75 29.3443C107.908 29.0265 108.13 28.7797 108.416 28.6039C108.702 28.4281 109.037 28.3402 109.42 28.3402C109.804 28.3402 110.138 28.4281 110.424 28.6039C110.71 28.7797 110.932 29.0265 111.09 29.3443C111.248 29.6621 111.327 30.0332 111.327 30.4576C111.327 30.8801 111.248 31.2495 111.09 31.5655C110.932 31.8816 110.71 32.1275 110.424 32.3033C110.138 32.479 109.804 32.5669 109.42 32.5669ZM109.423 31.8984C109.671 31.8984 109.877 31.8327 110.041 31.7013C110.204 31.57 110.325 31.3951 110.403 31.1767C110.483 30.9583 110.523 30.7177 110.523 30.4549C110.523 30.1939 110.483 29.9542 110.403 29.7358C110.325 29.5156 110.204 29.339 110.041 29.2058C109.877 29.0726 109.671 29.006 109.423 29.006C109.172 29.006 108.965 29.0726 108.8 29.2058C108.636 29.339 108.515 29.5156 108.435 29.7358C108.357 29.9542 108.318 30.1939 108.318 30.4549C108.318 30.7177 108.357 30.9583 108.435 31.1767C108.515 31.3951 108.636 31.57 108.8 31.7013C108.965 31.8327 109.172 31.8984 109.423 31.8984ZM115.576 28.3935L114.093 32.4844H113.241L111.755 28.3935H112.61L113.646 31.5415H113.688L114.722 28.3935H115.576ZM116.593 32.535C116.448 32.535 116.322 32.4835 116.218 32.3805C116.113 32.2757 116.061 32.1497 116.061 32.0023C116.061 31.8567 116.113 31.7324 116.218 31.6294C116.322 31.5247 116.448 31.4723 116.593 31.4723C116.739 31.4723 116.864 31.5247 116.969 31.6294C117.074 31.7324 117.126 31.8567 117.126 32.0023C117.126 32.1 117.101 32.1896 117.051 32.2713C117.003 32.3512 116.939 32.4151 116.86 32.4631C116.78 32.511 116.691 32.535 116.593 32.535ZM118.193 32.4844V28.3935H118.989V32.4844H118.193ZM118.595 27.7623C118.456 27.7623 118.337 27.7161 118.238 27.6238C118.14 27.5297 118.091 27.4178 118.091 27.2882C118.091 27.1568 118.14 27.0449 118.238 26.9526C118.337 26.8585 118.456 26.8114 118.595 26.8114C118.733 26.8114 118.851 26.8585 118.949 26.9526C119.048 27.0449 119.098 27.1568 119.098 27.2882C119.098 27.4178 119.048 27.5297 118.949 27.6238C118.851 27.7161 118.733 27.7623 118.595 27.7623ZM120.857 30.0554V32.4844H120.06V28.3935H120.825V29.0593H120.875C120.969 28.8427 121.117 28.6687 121.317 28.5373C121.52 28.4059 121.775 28.3402 122.082 28.3402C122.36 28.3402 122.605 28.3988 122.814 28.516C123.024 28.6314 123.186 28.8036 123.302 29.0327C123.417 29.2617 123.475 29.5449 123.475 29.8823V32.4844H122.678V29.9782C122.678 29.6816 122.601 29.4499 122.447 29.283C122.292 29.1143 122.08 29.03 121.81 29.03C121.625 29.03 121.461 29.07 121.317 29.1499C121.175 29.2298 121.063 29.3469 120.979 29.5014C120.897 29.6541 120.857 29.8388 120.857 30.0554Z" fill="#444444"/>
</svg>
