<?xml version="1.0" encoding="UTF-8"?>
<svg version="1.1" xmlns="http://www.w3.org/2000/svg" width="512" height="512">
<path d="M0 0 C5.06847053 3.34059862 9.21275136 8.18926575 13.41796875 12.53125 C13.88771118 13.01565552 14.35745361 13.50006104 14.84143066 13.99914551 C16.79010795 16.01201218 18.73814602 18.02469458 20.6628418 20.06054688 C22.08844005 21.5646206 23.53224241 23.04899618 24.98046875 24.53125 C25.82504639 25.41361328 26.66962402 26.29597656 27.53979492 27.20507812 C29.82804743 29.25727654 29.82804743 29.25727654 32.49072266 28.93847656 C35.17202309 27.93566289 37.64070387 26.80006746 40.16796875 25.453125 C41.14443359 24.9375 42.12089844 24.421875 43.12695312 23.890625 C44.13693359 23.34921875 45.14691406 22.8078125 46.1875 22.25 C50.1220845 20.16111194 54.05976021 18.07819962 58 16 C58.92844727 15.5045166 59.85689453 15.0090332 60.81347656 14.49853516 C62.12590332 13.81476807 62.12590332 13.81476807 63.46484375 13.1171875 C64.23562256 12.71097168 65.00640137 12.30475586 65.80053711 11.88623047 C69.68413427 10.3214111 72.01543836 10.76341191 76 12 C78.5 14.0625 78.5 14.0625 80 17 C80.61645015 23.63215332 79.20214234 27.66189439 76.0625 33.4375 C75.66297119 34.20304199 75.26344238 34.96858398 74.85180664 35.75732422 C73.58303887 38.17990014 72.29206488 40.58978351 71 43 C70.13131304 44.64895052 69.26410969 46.29868353 68.3984375 47.94921875 C66.28267831 51.97539983 64.14693293 55.99036167 62 60 C65.62613484 64.32478817 69.34253298 68.45780737 73.36328125 72.42578125 C73.84073288 72.89944626 74.31818451 73.37311127 74.81010437 73.86112976 C76.30844394 75.34742917 77.8100369 76.83036989 79.3125 78.3125 C81.31146617 80.28488502 83.3070922 82.26056397 85.30078125 84.23828125 C86.17903564 85.10493408 87.05729004 85.97158691 87.9621582 86.86450195 C91.33947698 90.4036666 91.34952029 93.0723377 91.2734375 97.8046875 C91 100 91 100 89.4375 102.5 C83.59508275 106.09533369 77.19334735 104.85511692 70.78515625 103.78515625 C69.92941513 103.65056503 69.07367401 103.51597382 68.19200134 103.37730408 C65.48054063 102.94860466 62.77160929 102.50579128 60.0625 102.0625 C58.21564414 101.76794228 56.36863998 101.47431279 54.52148438 101.18164062 C50.01253619 100.46515511 45.50580059 99.73600979 41 99 C39.71217588 101.35402119 38.42503737 103.70841374 37.13867188 106.06323242 C36.04201327 108.07045099 34.94434912 110.07712048 33.84570312 112.08325195 C31.37695195 116.60020879 28.9198021 121.11901939 26.5625 125.6953125 C26.20865234 126.37843506 25.85480469 127.06155762 25.49023438 127.76538086 C24.55904602 129.57288725 23.63853005 131.38588046 22.71875 133.19921875 C21.01158341 135.98112431 19.82624415 137.41534288 17 139 C11.47750865 139.70126874 11.47750865 139.70126874 9 139 C4.40974805 135.42529052 3.08989292 132.08486597 2.3125 126.5 C2.1993042 125.80455078 2.0861084 125.10910156 1.96948242 124.39257812 C1.62727978 122.26417956 1.31261704 120.13291882 1 118 C0.79375 116.700625 0.5875 115.40125 0.375 114.0625 C-0.10160666 111.04399114 -0.55986253 108.02400331 -1 105 C-3.25944742 104.7649552 -3.25944742 104.7649552 -5.109375 107.09765625 C-6.41648438 108.56525391 -6.41648438 108.56525391 -7.75 110.0625 C-8.74791762 111.17257695 -9.7466538 112.28191845 -10.74609375 113.390625 C-11.2757373 113.98037109 -11.80538086 114.57011719 -12.35107422 115.17773438 C-15.13619426 118.25563428 -17.97506974 121.28289003 -20.8125 124.3125 C-21.99355535 125.57545933 -23.1745441 126.83848095 -24.35546875 128.1015625 C-24.95020996 128.73739258 -25.54495117 129.37322266 -26.15771484 130.02832031 C-28.06187593 132.06622184 -29.96296557 134.10695004 -31.86328125 136.1484375 C-32.80820435 137.16296997 -32.80820435 137.16296997 -33.7722168 138.19799805 C-34.97602929 139.49064108 -36.17934535 140.78374668 -37.38208008 142.07739258 C-37.92888428 142.66415771 -38.47568848 143.25092285 -39.0390625 143.85546875 C-39.5537207 144.40895996 -40.06837891 144.96245117 -40.59863281 145.53271484 C-41.73916772 146.7268986 -42.93647084 147.8666612 -44.1484375 148.98828125 C-46.177092 151.19241009 -47.42739942 153.56435826 -48.85693359 156.18017578 C-50.86925814 159.38390648 -53.58133383 161.84802857 -56.3125 164.4375 C-57.48104155 165.57359558 -58.64772372 166.71160691 -59.8125 167.8515625 C-60.36679688 168.39329102 -60.92109375 168.93501953 -61.4921875 169.49316406 C-63.93560899 171.93500303 -66.16041813 174.54449247 -68.39453125 177.17578125 C-70.80660242 179.91650445 -73.42683372 182.43566865 -76.02734375 184.99609375 C-78.57337829 187.58246151 -80.92021557 190.3153528 -83.28515625 193.06640625 C-85.50169397 195.56569138 -87.87162281 197.88281884 -90.25390625 200.22265625 C-92.06477643 202.06593574 -93.75321354 203.97822799 -95.4375 205.9375 C-97.85617779 208.74576347 -100.35899683 211.39970593 -103 214 C-105.62040609 216.58009215 -108.10323412 219.21103607 -110.5 222 C-113.51762353 225.51141648 -116.73359081 228.75307402 -120.03125 232 C-121.93986455 233.93891002 -123.72710552 235.93699551 -125.5 238 C-129.8243871 243.01549919 -134.3326151 247.91813862 -139.5625 252 C-141.72102943 253.77110107 -143.34685798 255.47925022 -145.15234375 257.58984375 C-148.99188132 262.0208871 -152.97389453 266.30115274 -157 270.5625 C-157.67289063 271.27857422 -158.34578125 271.99464844 -159.0390625 272.73242188 C-161.01691394 274.83054806 -163.00518777 276.91800061 -165 279 C-165.63365479 279.66499512 -166.26730957 280.32999023 -166.92016602 281.01513672 C-167.52530029 281.63791504 -168.13043457 282.26069336 -168.75390625 282.90234375 C-169.55163452 283.72786743 -169.55163452 283.72786743 -170.36547852 284.57006836 C-173.7714403 287.5497126 -177.5820923 288.89526953 -182.07421875 289.08984375 C-186.99609537 288.72421863 -190.27026013 287.13637216 -194 284 C-198.08202469 278.59407541 -199.45191442 274.77871634 -199 268 C-197.15593919 262.82639525 -195.14490003 259.65142723 -191.17578125 255.75 C-190.71068649 255.28819336 -190.24559174 254.82638672 -189.7664032 254.35058594 C-188.29094428 252.89071953 -186.801933 251.44559052 -185.3125 250 C-184.33311469 249.03212924 -183.35459199 248.0633848 -182.37695312 247.09375 C-177.64859531 242.42598282 -172.82933136 237.90822152 -167.78979492 233.578125 C-164.88922854 231.02059382 -162.20128457 228.26464804 -159.5 225.5 C-155.51478981 221.4646327 -151.48480851 217.60576993 -147.15625 213.9375 C-144.15385317 211.23969415 -141.33739183 208.36956181 -138.5 205.5 C-134.51223169 201.4670189 -130.48505095 197.60597538 -126.15625 193.9375 C-123.15385317 191.23969415 -120.33739183 188.36956181 -117.5 185.5 C-113.51223169 181.4670189 -109.48505095 177.60597538 -105.15625 173.9375 C-102.15385317 171.23969415 -99.33739183 168.36956181 -96.5 165.5 C-92.51223169 161.4670189 -88.48505095 157.60597538 -84.15625 153.9375 C-81.15385317 151.23969415 -78.33739183 148.36956181 -75.5 145.5 C-71.51223169 141.4670189 -67.48505095 137.60597538 -63.15625 133.9375 C-60.15385317 131.23969415 -57.33739183 128.36956181 -54.5 125.5 C-50.51223169 121.4670189 -46.48505095 117.60597538 -42.15625 113.9375 C-38.5568323 110.70324062 -35.20267303 107.22225242 -31.80151367 103.78198242 C-28.16006026 100.11489625 -24.43635268 96.60890644 -20.48828125 93.26953125 C-18.87189265 91.92460715 -18.87189265 91.92460715 -17 90 C-21.46071336 88.92612456 -25.88862948 87.99717769 -30.4296875 87.33984375 C-31.61618896 87.16255737 -31.61618896 87.16255737 -32.82666016 86.98168945 C-34.42081208 86.74704751 -36.01690227 86.5251586 -37.61474609 86.31713867 C-42.45998239 85.59206845 -45.42221664 84.59165074 -49 81 C-50.57898053 77.84203893 -50.81928171 74.39329364 -50 71 C-46.63023942 67.20015509 -43.32797556 64.84369306 -38.81640625 62.5546875 C-38.23841782 62.25813263 -37.66042938 61.96157776 -37.06492615 61.65603638 C-35.23525309 60.71992602 -33.39915705 59.79731863 -31.5625 58.875 C-30.33483773 58.24957797 -29.10761993 57.62328264 -27.88085938 56.99609375 C-24.59326401 55.3186649 -21.29849518 53.65591412 -18 52 C-16.92097412 51.43941895 -15.84194824 50.87883789 -14.73022461 50.30126953 C-12 49 -12 49 -10 49 C-10.12117187 48.01717041 -10.24234375 47.03434082 -10.3671875 46.02172852 C-10.8199096 42.33781058 -11.26546754 38.65305412 -11.70898438 34.96801758 C-11.90107369 33.38021888 -12.09504559 31.79264666 -12.29101562 30.20532227 C-15.06553124 7.70484998 -15.06553124 7.70484998 -12.125 3 C-8.49257867 -0.41874949 -4.84811616 -1.01438174 0 0 Z " fill="#F5B948" transform="translate(208,193)"/>
<path d="M0 0 C16.78760552 12.2725275 21.92167667 34.00380341 25.1640625 53.58203125 C30.67226742 91.68044858 22.81789127 130.66955293 15.78173828 167.97387695 C13.6064873 179.61340397 11.69437511 191.2279326 10.35546875 202.99609375 C10.23131088 204.06822113 10.10715302 205.14034851 9.97923279 206.2449646 C7.96314354 225.23826283 8.16034836 245.53927504 19.58203125 261.703125 C23.38132791 266.2153761 27.76609565 268.36792707 33.6640625 268.89453125 C44.38798146 268.6592716 52.83297702 262.99811482 60.1640625 255.58203125 C74.31315953 239.4727056 81.31790567 218.91408302 84.6796875 198.0546875 C84.9939267 196.13294456 84.9939267 196.13294456 85.31451416 194.17237854 C87.78666896 178.64897518 89.23806769 163.0118911 90.69403076 147.36694336 C90.99090431 144.19974321 91.29672297 141.03343474 91.60293198 137.86712551 C94.23448536 113.11503894 94.23448536 113.11503894 95.3671875 88.2734375 C95.37288757 87.4593895 95.37858765 86.64534149 95.38446045 85.80662537 C95.39378782 84.10701753 95.40039454 82.40739262 95.40429688 80.70776367 C95.4140346 78.1518537 95.44518889 75.59673945 95.4765625 73.04101562 C95.58869149 55.54328704 93.27037899 39.03349402 81.1640625 25.58203125 C77.37491037 21.79287912 74.55108489 20.67491095 69.1640625 20.58203125 C66.40323858 21.42013851 64.57326815 22.14081001 62.1640625 23.58203125 C61.5865625 23.9275 61.0090625 24.27296875 60.4140625 24.62890625 C52.31437278 30.48671756 47.93004598 41.83495262 46.35546875 51.3984375 C46.14468879 53.80304971 46.12590145 56.16940517 46.1640625 58.58203125 C45.5040625 58.58203125 44.8440625 58.58203125 44.1640625 58.58203125 C43.46048996 43.18161008 45.51286303 31.54771632 56.1640625 19.58203125 C60.53446783 15.56576558 65.2896061 11.68984221 71.41015625 11.51953125 C77.864716 11.83390859 82.1686581 13.54464961 87.1640625 17.58203125 C87.89496094 18.16597656 88.62585938 18.74992187 89.37890625 19.3515625 C103.18440153 31.69391127 107.47007013 50.22996928 108.56396484 68.04516602 C108.65607056 69.99584127 108.73846347 71.9469929 108.8125 73.8984375 C108.87423149 75.5074292 108.87423149 75.5074292 108.93721008 77.14892578 C109.36244671 90.47408373 108.8634634 103.76596932 108.3515625 117.08203125 C108.27868037 119.08090255 108.20580068 121.07977398 108.13332367 123.07866001 C107.83584933 131.24753766 107.50825192 139.41500022 107.1640625 147.58203125 C107.12432312 148.53096252 107.08458374 149.4798938 107.04364014 150.45758057 C105.11228977 195.81072077 101.85577138 241.34220054 66.6640625 273.89453125 C56.33513655 282.63439167 44.44044045 288.25094354 30.76953125 287.890625 C19.86740915 286.59936916 11.35024491 280.69709731 4.4765625 272.39453125 C-6.53378197 257.28079451 -9.99754009 240.04224205 -10.0859375 221.64453125 C-10.1065625 220.63712891 -10.1271875 219.62972656 -10.1484375 218.59179688 C-10.26025817 195.51480621 -4.90008924 172.74126717 -0.31494141 150.24523926 C5.75770223 121.05572872 5.75770223 121.05572872 10.1640625 91.58203125 C10.29135742 90.50920898 10.41865234 89.43638672 10.54980469 88.33105469 C13.0897235 63.89408841 13.92694929 30.00968325 -2.0859375 9.44140625 C-5.84101187 5.45163973 -10.10355943 4.00008512 -15.51953125 3.52734375 C-28.02634672 3.82261427 -39.73313657 10.2369874 -48.5859375 18.70703125 C-57.82536034 28.5507768 -64.17893079 39.44947989 -69.8359375 51.58203125 C-71.18959587 47.52105613 -69.80822907 44.90387508 -68.3359375 41.08203125 C-68.06112549 40.36515137 -67.78631348 39.64827148 -67.50317383 38.90966797 C-63.25242669 28.21872153 -56.87320356 19.75529166 -48.8359375 11.58203125 C-48.12566406 10.85886719 -47.41539062 10.13570312 -46.68359375 9.390625 C-34.79607769 -1.93798434 -15.25171287 -9.25814678 0 0 Z " fill="#FAD086" transform="translate(339.8359375,115.41796875)"/>
<path d="M0 0 C1.90845703 0.17982422 1.90845703 0.17982422 3.85546875 0.36328125 C4.83128906 0.47027344 5.80710938 0.57726562 6.8125 0.6875 C8.20880452 5.23699771 8.62229592 8.97726695 7.8125 13.6875 C4.72170982 18.81040815 0.03368964 22.81629658 -4.29492188 26.87939453 C-7.04380732 29.5055872 -9.57918983 32.30406184 -12.125 35.125 C-13.09092666 36.17587948 -14.05841084 37.2253292 -15.02734375 38.2734375 C-15.52733887 38.81452148 -16.02733398 39.35560547 -16.54248047 39.91308594 C-19.74643424 43.36905745 -22.96610852 46.81028839 -26.1875 50.25 C-26.82292725 50.92925537 -27.45835449 51.60851074 -28.11303711 52.30834961 C-28.71510986 52.9503833 -29.31718262 53.59241699 -29.9375 54.25390625 C-30.50597656 54.86121582 -31.07445312 55.46852539 -31.66015625 56.09423828 C-32.85673794 57.34246272 -34.10678007 58.53947563 -35.375 59.71484375 C-37.38569695 61.90321004 -38.62618713 64.27251294 -40.04443359 66.86767578 C-42.05675814 70.07140648 -44.76883383 72.53552857 -47.5 75.125 C-48.66854155 76.26109558 -49.83522372 77.39910691 -51 78.5390625 C-51.55429688 79.08079102 -52.10859375 79.62251953 -52.6796875 80.18066406 C-55.12310899 82.62250303 -57.34791813 85.23199247 -59.58203125 87.86328125 C-61.99410242 90.60400445 -64.61433372 93.12316865 -67.21484375 95.68359375 C-69.76087829 98.26996151 -72.10771557 101.0028528 -74.47265625 103.75390625 C-76.68919397 106.25319138 -79.05912281 108.57031884 -81.44140625 110.91015625 C-83.25227643 112.75343574 -84.94071354 114.66572799 -86.625 116.625 C-89.04367779 119.43326347 -91.54649683 122.08720593 -94.1875 124.6875 C-96.80790609 127.26759215 -99.29073412 129.89853607 -101.6875 132.6875 C-104.70512353 136.19891648 -107.92109081 139.44057402 -111.21875 142.6875 C-113.12736455 144.62641002 -114.91460552 146.62449551 -116.6875 148.6875 C-121.0118871 153.70299919 -125.5201151 158.60563862 -130.75 162.6875 C-132.90852943 164.45860107 -134.53435798 166.16675022 -136.33984375 168.27734375 C-140.17938132 172.7083871 -144.16139453 176.98865274 -148.1875 181.25 C-148.86039063 181.96607422 -149.53328125 182.68214844 -150.2265625 183.41992188 C-152.20441394 185.51804806 -154.19268777 187.60550061 -156.1875 189.6875 C-156.82115479 190.35249512 -157.45480957 191.01749023 -158.10766602 191.70263672 C-159.01536743 192.6368042 -159.01536743 192.6368042 -159.94140625 193.58984375 C-160.73913452 194.41536743 -160.73913452 194.41536743 -161.55297852 195.25756836 C-164.9589403 198.2372126 -168.7695923 199.58276953 -173.26171875 199.77734375 C-178.18359537 199.41171863 -181.45776013 197.82387216 -185.1875 194.6875 C-189.26952469 189.28157541 -190.63941442 185.46621634 -190.1875 178.6875 C-188.34343919 173.51389525 -186.33240003 170.33892723 -182.36328125 166.4375 C-181.89818649 165.97569336 -181.43309174 165.51388672 -180.9539032 165.03808594 C-179.47844428 163.57821953 -177.989433 162.13309052 -176.5 160.6875 C-175.52061469 159.71962924 -174.54209199 158.7508848 -173.56445312 157.78125 C-168.83609531 153.11348282 -164.01683136 148.59572152 -158.97729492 144.265625 C-156.07672854 141.70809382 -153.38878457 138.95214804 -150.6875 136.1875 C-146.70228981 132.1521327 -142.67230851 128.29326993 -138.34375 124.625 C-135.34135317 121.92719415 -132.52489183 119.05706181 -129.6875 116.1875 C-125.69973169 112.1545189 -121.67255095 108.29347538 -117.34375 104.625 C-114.34135317 101.92719415 -111.52489183 99.05706181 -108.6875 96.1875 C-104.69973169 92.1545189 -100.67255095 88.29347538 -96.34375 84.625 C-93.34135317 81.92719415 -90.52489183 79.05706181 -87.6875 76.1875 C-83.69973169 72.1545189 -79.67255095 68.29347538 -75.34375 64.625 C-72.34135317 61.92719415 -69.52489183 59.05706181 -66.6875 56.1875 C-62.69973169 52.1545189 -58.67255095 48.29347538 -54.34375 44.625 C-51.34135317 41.92719415 -48.52489183 39.05706181 -45.6875 36.1875 C-41.69973169 32.1545189 -37.67255095 28.29347538 -33.34375 24.625 C-29.74356369 21.39004998 -26.38872709 17.90826458 -22.98681641 14.46728516 C-19.37817003 10.833263 -15.69192817 7.35717091 -11.7734375 4.0546875 C-10.12837981 2.7373708 -10.12837981 2.7373708 -8.92578125 0.98828125 C-6.08102444 -1.14049182 -3.43018754 -0.34616571 0 0 Z " fill="#FEC966" transform="translate(199.1875,282.3125)"/>
<path d="M0 0 C4.39831531 3.68022301 8.53758412 7.454292 12.51953125 11.58203125 C13.96354985 13.10498419 13.96354985 13.10498419 16 14 C14.52513359 19.25606755 11.14049106 22.16260106 7.3125 25.8125 C6.03330537 27.05930176 4.75594048 28.30798374 3.48046875 29.55859375 C2.87251465 30.15397949 2.26456055 30.74936523 1.63818359 31.36279297 C-0.86161665 33.86110302 -3.14749494 36.51588599 -5.4296875 39.2109375 C-7.82705094 41.94226202 -10.43882182 44.44747196 -13.02734375 46.99609375 C-15.57337829 49.58246151 -17.92021557 52.3153528 -20.28515625 55.06640625 C-22.50169397 57.56569138 -24.87162281 59.88281884 -27.25390625 62.22265625 C-29.06477643 64.06593574 -30.75321354 65.97822799 -32.4375 67.9375 C-34.85617779 70.74576347 -37.35899683 73.39970593 -40 76 C-42.62040609 78.58009215 -45.10323412 81.21103607 -47.5 84 C-50.51762353 87.51141648 -53.73359081 90.75307402 -57.03125 94 C-59.54455606 96.5531998 -61.85768588 99.25236417 -64.19140625 101.96875 C-67.30504645 105.46571091 -70.65139835 108.72967735 -74 112 C-81 105 -88 98 -95 91 C-93.20691005 87.13989002 -90.91976852 84.68562165 -87.875 81.6875 C-87.38217529 81.20112061 -86.88935059 80.71474121 -86.3815918 80.21362305 C-82.99532634 76.89777871 -79.49809919 73.75092375 -75.89453125 70.67578125 C-73.134772 68.23467461 -70.58789024 65.597094 -68.00390625 62.97265625 C-65.41753849 60.42662171 -62.6846472 58.07978443 -59.93359375 55.71484375 C-58.04505403 54.03995701 -56.26844352 52.30052413 -54.5 50.5 C-52.10946833 48.06610268 -49.64953738 45.78644441 -47.0625 43.5625 C-44.25423653 41.14382221 -41.60029407 38.64100317 -39 36 C-35.79970478 32.74970017 -32.45775424 29.75275755 -29 26.78125 C-26.21114467 24.29742572 -23.62313017 21.63288563 -21.00390625 18.97265625 C-18.42272186 16.43172425 -15.69626274 14.08893285 -12.94921875 11.73046875 C-10.36363116 9.4350473 -7.96449783 6.97757788 -5.54296875 4.51171875 C-3.8154491 2.81918684 -1.99987228 1.35991315 0 0 Z " fill="#444445" transform="translate(145,331)"/>
<path d="M0 0 C1.32 0 2.64 0 4 0 C4.50559908 1.43554025 5.0042749 2.8735202 5.5 4.3125 C5.7784375 5.11300781 6.056875 5.91351563 6.34375 6.73828125 C7 9 7 9 7 12 C11.29 12 15.58 12 20 12 C20.495 14.475 20.495 14.475 21 17 C18.36 18.98 15.72 20.96 13 23 C13.15597656 23.92683594 13.31195313 24.85367188 13.47265625 25.80859375 C13.66730469 27.00613281 13.86195313 28.20367187 14.0625 29.4375 C14.35833984 31.22994141 14.35833984 31.22994141 14.66015625 33.05859375 C14.77230469 34.02925781 14.88445312 34.99992187 15 36 C14 37 14 37 11.3125 37.3125 C7.25041773 36.92928469 5.33648703 35.24850213 2 33 C-1.91249492 33 -4.89902519 35.8152223 -8 38 C-9.32 37.34 -10.64 36.68 -12 36 C-11.52060632 31.28596212 -11.03165952 27.33420699 -9 23 C-9.5775 22.7525 -10.155 22.505 -10.75 22.25 C-13.3988272 20.77842934 -15.10374141 19.37032324 -17 17 C-17 15.35 -17 13.7 -17 12 C-10.565 11.505 -10.565 11.505 -4 11 C-3.2884375 8.5559375 -3.2884375 8.5559375 -2.5625 6.0625 C-1.125 1.125 -1.125 1.125 0 0 Z " fill="#FFCA66" transform="translate(333,39)"/>
<path d="M0 0 C1.32 0 2.64 0 4 0 C4.50559908 1.43554025 5.0042749 2.8735202 5.5 4.3125 C5.7784375 5.11300781 6.056875 5.91351563 6.34375 6.73828125 C7 9 7 9 7 12 C11.62 12 16.24 12 21 12 C21.495 13.98 21.495 13.98 22 16 C20.8803014 17.00593243 19.7540588 18.0045849 18.625 19 C17.99851563 19.556875 17.37203125 20.11375 16.7265625 20.6875 C15 22 15 22 13 22 C13.34224609 23.01320312 13.34224609 23.01320312 13.69140625 24.046875 C13.97886719 24.93890625 14.26632813 25.8309375 14.5625 26.75 C14.85253906 27.63171875 15.14257812 28.5134375 15.44140625 29.421875 C16.01697435 32.07834316 15.89248371 33.47031106 15 36 C13.25 36.65625 13.25 36.65625 11 37 C8.81463921 35.87317334 6.97963269 34.48504275 5 33.03125 C3.06142195 31.80167344 3.06142195 31.80167344 0.90625 32.2109375 C-1.24327989 32.9864555 -1.24327989 32.9864555 -3.5 35.125 C-6 37 -6 37 -8.3125 36.75 C-8.869375 36.5025 -9.42625 36.255 -10 36 C-11.51403812 31.15507803 -10.36602172 27.7408989 -9 23 C-9.5775 22.62488281 -10.155 22.24976563 -10.75 21.86328125 C-11.86375 21.09564453 -11.86375 21.09564453 -13 20.3125 C-13.7425 19.81363281 -14.485 19.31476563 -15.25 18.80078125 C-17 17 -17 17 -17 12 C-10.565 11.505 -10.565 11.505 -4 11 C-3.2884375 8.5559375 -3.2884375 8.5559375 -2.5625 6.0625 C-1.125 1.125 -1.125 1.125 0 0 Z " fill="#FFCA66" transform="translate(115,215)"/>
<path d="M0 0 C1.32 0 2.64 0 4 0 C4.99 3.96 5.98 7.92 7 12 C13.435 11.505 13.435 11.505 20 11 C20.495 13.475 20.495 13.475 21 16 C20.48308594 16.27070312 19.96617187 16.54140625 19.43359375 16.8203125 C17.02927166 18.39182635 15.59135251 19.58381032 14 22 C13.67128427 26.77167992 14.2322352 31.29018229 15 36 C10.67214757 36.24801447 8.20523242 35.96912581 4.625 33.5 C3.93664062 33.0359375 3.24828125 32.571875 2.5390625 32.09375 C2.03117187 31.7328125 1.52328125 31.371875 1 31 C0.55269531 31.3609375 0.10539062 31.721875 -0.35546875 32.09375 C-5.35506003 35.93138937 -5.35506003 35.93138937 -8.9375 36.3125 C-9.618125 36.209375 -10.29875 36.10625 -11 36 C-11.09764874 31.21521178 -10.77112541 26.72314313 -10 22 C-10.49371094 21.68546875 -10.98742187 21.3709375 -11.49609375 21.046875 C-12.13675781 20.61890625 -12.77742188 20.1909375 -13.4375 19.75 C-14.07558594 19.33234375 -14.71367187 18.9146875 -15.37109375 18.484375 C-17.30983044 16.71766051 -17.70682911 15.57990385 -18 13 C-17 12 -17 12 -14.05859375 11.90234375 C-12.26615234 11.91974609 -12.26615234 11.91974609 -10.4375 11.9375 C-8.64119141 11.95103516 -8.64119141 11.95103516 -6.80859375 11.96484375 C-5.88175781 11.97644531 -4.95492188 11.98804687 -4 12 C-3.81824219 11.07767578 -3.81824219 11.07767578 -3.6328125 10.13671875 C-3.46523438 9.32847656 -3.29765625 8.52023438 -3.125 7.6875 C-2.96257812 6.88699219 -2.80015625 6.08648437 -2.6328125 5.26171875 C-2 3 -2 3 0 0 Z " fill="#FFCA66" transform="translate(400,77)"/>
<path d="M0 0 C0.99 0.33 1.98 0.66 3 1 C4.36069944 4.58933475 5.09732441 8.26034397 6 12 C9.96 12 13.92 12 18 12 C18.66 13.32 19.32 14.64 20 16 C18.8803014 17.00593243 17.7540588 18.0045849 16.625 19 C15.99851563 19.556875 15.37203125 20.11375 14.7265625 20.6875 C13 22 13 22 11 22 C11.23976562 22.91523437 11.47953125 23.83046875 11.7265625 24.7734375 C12.02304688 25.96195313 12.31953125 27.15046875 12.625 28.375 C12.92664063 29.55835937 13.22828125 30.74171875 13.5390625 31.9609375 C13.69117188 32.96382812 13.84328125 33.96671875 14 35 C13.34 35.66 12.68 36.32 12 37 C7.33010192 36.73314868 3.90166308 34.37159913 0 32 C-0.44730469 32.37253906 -0.89460938 32.74507812 -1.35546875 33.12890625 C-6.35506003 37.04116638 -6.35506003 37.04116638 -9.9375 36.8125 C-10.618125 36.544375 -11.29875 36.27625 -12 36 C-11.85769192 34.58297487 -11.71099254 33.1663904 -11.5625 31.75 C-11.48128906 30.96109375 -11.40007812 30.1721875 -11.31640625 29.359375 C-11 27 -11 27 -10 23 C-12.64 21.02 -15.28 19.04 -18 17 C-17.67 15.35 -17.34 13.7 -17 12 C-13.04 12 -9.08 12 -5 12 C-4.54625 10.205625 -4.0925 8.41125 -3.625 6.5625 C-2.8515625 3.50390625 -2.8515625 3.50390625 -2 1 C-1.34 0.67 -0.68 0.34 0 0 Z " fill="#FFC966" transform="translate(194,58)"/>
<path d="M0 0 C1.28537108 3.59358944 0.70010304 5.67190639 -0.58203125 9.2109375 C-0.93716797 10.20867187 -1.29230469 11.20640625 -1.65820312 12.234375 C-2.03912109 13.27078125 -2.42003906 14.3071875 -2.8125 15.375 C-3.89563027 18.39188642 -4.97854017 21.40883784 -6.05810547 24.42700195 C-6.80574861 26.46935838 -7.61001779 28.49096992 -8.43359375 30.50390625 C-9.27620298 32.96688745 -9.27620298 32.96688745 -8.015625 34.87890625 C-7.14164062 35.71228516 -7.14164062 35.71228516 -6.25 36.5625 C-2.82282694 40.09167226 0.25309635 43.73178992 3.25 47.625 C3.6737793 48.16326416 4.09755859 48.70152832 4.53417969 49.25610352 C7.1644027 52.66381712 9.19455306 56.09601409 11 60 C-0.74622654 55.8792623 -10.73631961 45.0988685 -20 37 C-19.07537052 31.34969488 -16.59270775 26.89264938 -13.9375 21.875 C-13.44596436 20.93954346 -12.95442871 20.00408691 -12.44799805 19.0402832 C-8.81148064 12.24049785 -4.88987149 5.98273675 0 0 Z " fill="#F9CF83" transform="translate(268,223)"/>
<path d="M0 0 C0.99 0 1.98 0 3 0 C3.66 2.97 4.32 5.94 5 9 C8.3 8.67 11.6 8.34 15 8 C15.66 9.32 16.32 10.64 17 12 C15.989375 12.61875 14.97875 13.2375 13.9375 13.875 C12.19410524 15.16061308 12.19410524 15.16061308 11 17 C10.76284739 20.45188796 11.27960404 23.6272371 12 27 C7.78087253 26.5205537 5.20336822 25.83374881 2 23 C0.63875 23.99 0.63875 23.99 -0.75 25 C-4 27 -4 27 -8 27 C-7.85820312 26.41992188 -7.71640625 25.83984375 -7.5703125 25.2421875 C-7.09543932 22.71786164 -6.81124363 20.56708668 -7 18 C-8.36410422 16.03568992 -9.77092067 14.75477251 -11.65234375 13.2890625 C-12.09707031 12.86367187 -12.54179687 12.43828125 -13 12 C-13 11.01 -13 10.02 -13 9 C-9.7 9 -6.4 9 -3 9 C-2.87625 8.071875 -2.7525 7.14375 -2.625 6.1875 C-2 3 -2 3 0 0 Z " fill="#FFCA66" transform="translate(230,119)"/>
<path d="M0 0 C1.32 0.33 2.64 0.66 4 1 C4.33 3.31 4.66 5.62 5 8 C5.61488281 7.98839844 6.22976563 7.97679687 6.86328125 7.96484375 C7.67152344 7.95582031 8.47976563 7.94679688 9.3125 7.9375 C10.51326172 7.92009766 10.51326172 7.92009766 11.73828125 7.90234375 C14 8 14 8 17 9 C16.8125 10.75 16.8125 10.75 16 13 C15.13375 13.53625 14.2675 14.0725 13.375 14.625 C10.73168793 16.73284431 10.73168793 16.73284431 10.89453125 19.4765625 C11.16252615 22.01358091 11.51725619 24.49546774 12 27 C8.33489775 27.19711474 7.29855465 27.21230553 4.1875 25 C3.465625 24.34 2.74375 23.68 2 23 C1.2575 23.66 0.515 24.32 -0.25 25 C-3 27 -3 27 -7 27 C-8 24 -8 24 -7.25 20.5625 C-7.1675 19.386875 -7.085 18.21125 -7 17 C-9.30068019 14.50789479 -9.30068019 14.50789479 -12 13 C-11.67 11.35 -11.34 9.7 -11 8 C-8.03 8 -5.06 8 -2 8 C-1.7834375 6.576875 -1.7834375 6.576875 -1.5625 5.125 C-1 2 -1 2 0 0 Z " fill="#FFC966" transform="translate(258,31)"/>
<path d="M0 0 C0.99 0 1.98 0 3 0 C3.66 2.97 4.32 5.94 5 9 C8.63 9 12.26 9 16 9 C15 14 15 14 12.953125 15.45703125 C10.70273435 16.8712115 10.70273435 16.8712115 10.609375 19.69921875 C10.65578125 20.68535156 10.7021875 21.67148437 10.75 22.6875 C10.80414063 24.17830078 10.80414063 24.17830078 10.859375 25.69921875 C10.90578125 26.45847656 10.9521875 27.21773438 11 28 C6.1953125 27.203125 6.1953125 27.203125 4.4375 25.375 C3.963125 24.92125 3.48875 24.4675 3 24 C0.29087174 24.17478247 -0.92592101 24.94163474 -3.0625 26.625 C-3.701875 27.07875 -4.34125 27.5325 -5 28 C-5.99 27.67 -6.98 27.34 -8 27 C-7.94199219 26.32453125 -7.88398438 25.6490625 -7.82421875 24.953125 C-7.68627241 22.22572882 -7.6368018 19.7090313 -8 17 C-10.37842577 14.59593616 -10.37842577 14.59593616 -13 13 C-13 11.68 -13 10.36 -13 9 C-9.7 9 -6.4 9 -3 9 C-2.01 6.03 -1.02 3.06 0 0 Z " fill="#FFCA66" transform="translate(277,348)"/>
<path d="M0 0 C0.99 0 1.98 0 3 0 C3.66 2.97 4.32 5.94 5 9 C8.63 9 12.26 9 16 9 C16 10.32 16 11.64 16 13 C14.989375 13.721875 13.97875 14.44375 12.9375 15.1875 C11.21752636 16.3611601 11.21752636 16.3611601 10 18 C9.76276641 21.13148343 10.27099227 23.95804958 11 27 C10.01 27.33 9.02 27.66 8 28 C7.195625 27.34 6.39125 26.68 5.5625 26 C3.2704103 23.77199391 3.2704103 23.77199391 0.9375 24.0625 C-1.11214964 24.96860213 -1.11214964 24.96860213 -3.0625 26.625 C-3.701875 27.07875 -4.34125 27.5325 -5 28 C-5.99 27.67 -6.98 27.34 -8 27 C-7.94199219 26.32453125 -7.88398438 25.6490625 -7.82421875 24.953125 C-7.68627241 22.22572882 -7.6368018 19.7090313 -8 17 C-10.37842577 14.59593616 -10.37842577 14.59593616 -13 13 C-13 11.68 -13 10.36 -13 9 C-9.7 9 -6.4 9 -3 9 C-2.690625 7.700625 -2.38125 6.40125 -2.0625 5.0625 C-1.125 1.125 -1.125 1.125 0 0 Z " fill="#FFCA66" transform="translate(486,219)"/>
<path d="M0 0 C1.32 0.33 2.64 0.66 4 1 C4.66 3.31 5.32 5.62 6 8 C11.445 8.495 11.445 8.495 17 9 C16 13 16 13 13.375 14.625 C10.73168793 16.73284431 10.73168793 16.73284431 10.89453125 19.4765625 C11.16252615 22.01358091 11.51725619 24.49546774 12 27 C8.33489775 27.19711474 7.29855465 27.21230553 4.1875 25 C3.465625 24.34 2.74375 23.68 2 23 C1.2575 23.66 0.515 24.32 -0.25 25 C-3 27 -3 27 -7 27 C-8 24 -8 24 -7.25 20.5625 C-7.1675 19.386875 -7.085 18.21125 -7 17 C-9.38118166 14.77831634 -9.38118166 14.77831634 -12 13 C-12 11.68 -12 10.36 -12 9 C-8.7 9 -5.4 9 -2 9 C-1.34 6.03 -0.68 3.06 0 0 Z " fill="#FFCA66" transform="translate(390,249)"/>
<path d="M0 0 C0.99 0.495 0.99 0.495 2 1 C1.566875 1.391875 1.13375 1.78375 0.6875 2.1875 C-1.09187285 3.95316987 -1.09187285 3.95316987 -2.25 6.25 C-6.033649 12.19573415 -11.66636217 16.62016163 -16.96484375 21.18359375 C-19.05858541 23.05228832 -21.03126897 25.00044735 -23 27 C-26.20029522 30.25029983 -29.54224576 33.24724245 -33 36.21875 C-35.78885533 38.70257428 -38.37686983 41.36711437 -40.99609375 44.02734375 C-43.58246151 46.57337829 -46.3153528 48.92021557 -49.06640625 51.28515625 C-50.95494597 52.96004299 -52.73155648 54.69947587 -54.5 56.5 C-56.89053167 58.93389732 -59.35046262 61.21355559 -61.9375 63.4375 C-64.74576347 65.85617779 -67.39970593 68.35899683 -70 71 C-73.8285293 74.8809749 -77.85386159 78.46383026 -82 82 C-82.67933594 82.58394531 -83.35867187 83.16789062 -84.05859375 83.76953125 C-85.703266 85.18255952 -87.35126933 86.59170922 -89 88 C-89 85 -89 85 -87.68994141 83.44116211 C-87.08327637 82.89210205 -86.47661133 82.34304199 -85.8515625 81.77734375 C-85.18060547 81.16117187 -84.50964844 80.545 -83.81835938 79.91015625 C-83.09455078 79.25917969 -82.37074219 78.60820312 -81.625 77.9375 C-80.14719404 76.58338705 -78.6706302 75.22791726 -77.1953125 73.87109375 C-76.47375977 73.20964355 -75.75220703 72.54819336 -75.00878906 71.86669922 C-72.43480804 69.47478637 -69.96328311 67.0057535 -67.5 64.5 C-64.81121864 61.77554658 -62.10235524 59.16784266 -59.1875 56.6875 C-55.42865112 53.4776108 -51.97257593 50.01209878 -48.5 46.5 C-44.51223992 42.46700799 -40.48505086 38.6059753 -36.15625 34.9375 C-33.15385317 32.23969415 -30.33739183 29.36956181 -27.5 26.5 C-23.52213119 22.47703064 -19.50662502 18.62306817 -15.1875 14.96484375 C-9.90238958 10.21768207 -4.98746242 5.05588797 0 0 Z " fill="#F5C561" transform="translate(139,332)"/>
</svg>
